<svg width="1246" height="588" viewBox="0 0 1246 588" fill="none" xmlns="http://www.w3.org/2000/svg">
<g clip-path="url(#clip0_2976_151912)">
<path fill-rule="evenodd" clip-rule="evenodd" d="M246.17 7.79902L273.427 35.0563C274.776 36.4053 276.606 37.1632 278.514 37.1632H314.983C316.891 37.1632 318.72 36.4053 320.069 35.0563L342.407 12.7189C346.939 8.18723 343.729 0.438799 337.32 0.438799H249.218C248.079 0.438799 246.987 0.889574 246.179 1.69266C244.486 3.37495 244.482 6.11177 246.17 7.79902ZM249.516 37.1632V42.9878C249.516 44.8957 250.274 46.7254 251.623 48.0744L253.715 50.1665C255.064 51.5155 256.894 52.2734 258.802 52.2734H262.915C269.376 52.2734 272.561 44.4156 267.923 39.9165L260.356 32.5763C256.303 28.6448 249.516 31.5167 249.516 37.1632ZM513.411 122.538L506.332 115.459C503.988 113.114 503.988 109.313 506.332 106.968C507.458 105.842 508.985 105.21 510.578 105.21H526.418C528.01 105.21 529.537 105.842 530.663 106.968C533.008 109.313 533.008 113.114 530.663 115.459L523.584 122.538C520.775 125.347 516.22 125.347 513.411 122.538ZM141.845 192.068V245.126C141.845 247.033 142.603 248.863 143.952 250.212L226.196 332.456C227.545 333.805 229.375 334.563 231.283 334.563H266.551C268.459 334.563 270.289 335.321 271.638 336.67L289.039 354.071C290.388 355.42 292.217 356.178 294.125 356.178H311.56V424.048C311.56 425.956 312.318 427.786 313.667 429.135L338.773 454.24C340.122 455.589 340.88 457.419 340.88 459.327V504.902C340.88 506.81 340.122 508.64 338.773 509.989L324.624 524.138C323.275 525.487 322.517 527.316 322.517 529.224V580.342C322.517 584.315 325.738 587.536 329.711 587.536H337.9C339.808 587.536 341.638 586.778 342.987 585.429L403.867 524.549C405.216 523.2 405.974 521.37 405.974 519.462V494.251C405.974 492.343 406.732 490.513 408.081 489.164L448.122 449.123C449.471 447.774 450.228 445.944 450.228 444.036V403.589C450.228 401.682 449.471 399.852 448.122 398.503L411.721 362.102C410.371 360.753 408.542 359.995 406.634 359.995H381.385C379.477 359.995 377.647 359.237 376.298 357.888L368.292 349.881C366.943 348.532 365.113 347.774 363.205 347.774H318.754C317.714 347.774 316.726 347.995 315.833 348.392C315.194 347.999 314.442 347.773 313.637 347.773H298.339C294.366 347.773 291.145 344.552 291.145 340.579V337.543C291.145 335.635 290.388 333.805 289.039 332.456L275.04 318.458C273.691 317.109 271.861 316.351 269.954 316.351H248.305C244.332 316.351 241.112 313.131 241.112 309.158V288.121C241.112 284.148 244.332 280.928 248.305 280.928H284.563C286.471 280.928 288.301 281.685 289.65 283.034L296.941 290.326C299.972 293.357 305.155 291.21 305.155 286.923C305.155 285.647 304.648 284.423 303.746 283.521L300.435 280.21C297.626 277.401 297.626 272.846 300.435 270.037L387.927 182.544C390.737 179.735 390.737 175.18 387.927 172.371L363.277 147.721C360.468 144.912 355.913 144.912 353.104 147.721L351.669 149.155C348.86 151.965 344.305 151.965 341.496 149.155L333.479 141.139C332.13 139.789 330.301 139.032 328.393 139.032H315.55C311.578 139.032 308.357 142.252 308.357 146.225V179.504C308.357 185.912 300.609 189.122 296.077 184.59L257.606 146.119C254.797 143.31 254.797 138.755 257.606 135.946L300.068 93.4838C302.877 90.6745 307.432 90.6745 310.241 93.4838L324.595 107.838C326.57 109.812 326.57 113.014 324.595 114.988C322.549 117.034 322.634 120.377 324.782 122.317L328.385 125.57C329.707 126.763 331.425 127.424 333.206 127.424H349.007C350.915 127.424 352.744 126.666 354.093 125.317L356.506 122.904C359.316 120.095 359.316 115.54 356.506 112.731L307.262 63.4862C305.913 62.1372 304.083 61.3793 302.175 61.3793H253.509C249.536 61.3793 246.315 64.5999 246.315 68.5728V81.2037C246.315 85.1765 243.094 88.3972 239.122 88.3972H216.284C212.311 88.3972 209.09 85.1765 209.09 81.2037V74.6882C209.09 69.7769 203.152 67.3173 199.679 70.7901C197.526 72.943 194.036 72.943 191.883 70.7901L181.577 60.4841C180.228 59.1351 178.398 58.3772 176.49 58.3772H152.641C148.668 58.3772 145.447 61.5978 145.447 65.5707V81.2037C145.447 85.1765 142.226 88.3972 138.254 88.3972H8.14314C4.17027 88.3972 0.949629 91.6178 0.949629 95.5907V133.839C0.949629 137.812 4.17027 141.033 8.14314 141.033H89.2317C91.1395 141.033 92.9692 141.791 94.3183 143.14L140.854 189.676C141.489 190.31 141.845 191.171 141.845 192.068ZM1086.88 181.161V200.275C1086.88 203.45 1090.72 205.041 1092.97 202.795C1094.36 201.403 1094.36 199.146 1092.97 197.754L1092.37 197.161C1091.55 196.336 1091.08 195.216 1091.08 194.048V187.466V181.161C1091.08 180.001 1090.14 179.06 1088.98 179.06C1087.82 179.06 1086.88 180.001 1086.88 181.161ZM743.58 436.306L738.154 441.732C736.805 443.081 736.047 444.911 736.047 446.818V472.869C736.047 476.842 739.268 480.063 743.24 480.063H743.663C747.636 480.063 750.857 476.842 750.857 472.869V454.223C750.857 452.315 751.614 450.486 752.963 449.137L753.753 448.347C755.102 446.998 755.86 445.168 755.86 443.26V441.392C755.86 434.983 748.111 431.774 743.58 436.306ZM1063.46 261.321L1052.74 272.04C1049.93 274.85 1045.35 274.819 1042.54 272.01C1039.74 269.211 1039.7 264.647 1042.48 261.833L1054.35 249.84C1055.7 248.474 1057.54 247.706 1059.46 247.706H1064.68C1068.65 247.706 1071.87 244.485 1071.87 240.513V232.274C1071.87 230.366 1072.63 228.536 1073.98 227.187L1081.03 220.138C1082.71 218.452 1085.45 218.452 1087.13 220.138C1088.82 221.823 1088.82 224.556 1087.13 226.242L1080.38 232.991C1079.03 234.34 1078.28 236.17 1078.28 238.078V252.021C1078.28 255.994 1075.06 259.214 1071.08 259.214H1068.55C1066.64 259.214 1064.81 259.972 1063.46 261.321ZM1007.23 327.556V345.192C1007.23 347.099 1007.99 348.929 1009.34 350.278L1018.56 359.507C1023.1 364.038 1030.84 360.829 1030.84 354.42V353.952C1030.84 352.044 1030.09 350.215 1028.74 348.866L1016.94 337.069C1015.59 335.72 1014.83 333.89 1014.83 331.982V327.556C1014.83 325.456 1013.13 323.754 1011.03 323.754C1008.93 323.754 1007.23 325.456 1007.23 327.556ZM977.241 367.493L964.773 379.962C963.424 381.311 962.666 383.14 962.666 385.048V395.288C962.666 399.261 965.887 402.482 969.859 402.482H986.685C988.593 402.482 990.423 401.724 991.772 400.375L1001.39 390.76C1002.74 389.411 1003.49 387.581 1003.49 385.674V372.58C1003.49 368.607 1000.27 365.386 996.3 365.386H982.328C980.42 365.386 978.59 366.144 977.241 367.493ZM964.701 424.493H1005.46C1009.26 424.493 1011.17 429.092 1008.48 431.781C1007.68 432.582 1006.59 433.032 1005.46 433.032H964.701C960.897 433.032 958.993 428.433 961.682 425.744C962.483 424.943 963.569 424.493 964.701 424.493ZM932.572 383.891L927.746 379.065C923.214 374.533 915.466 377.743 915.466 384.151V399.03C915.466 400.937 916.224 402.767 917.573 404.116L936.205 422.749C939.593 426.137 945.386 423.737 945.386 418.946C945.386 417.52 944.819 416.152 943.811 415.143L936.786 408.119C935.437 406.77 934.679 404.94 934.679 403.032V388.977C934.679 387.07 933.921 385.24 932.572 383.891ZM421.17 3.18818L391.614 32.7445C388.804 35.5538 388.804 40.1085 391.614 42.9177L411.858 63.1618C413.207 64.5109 413.965 66.3406 413.965 68.2484V81.5786C413.965 83.4864 414.723 85.3161 416.072 86.6652L448.275 118.869C449.624 120.218 451.454 120.976 453.362 120.976H456.991C460.963 120.976 464.184 117.755 464.184 113.782V108.158C464.184 106.25 464.942 104.42 466.291 103.071L533.096 36.266C535.905 33.4568 535.905 28.9021 533.096 26.0929L510.191 3.18818C508.842 1.83913 507.013 1.08125 505.105 1.08125H426.257C424.349 1.08125 422.519 1.83913 421.17 3.18818ZM317.198 317.814H298.951C297.581 317.814 296.267 317.27 295.298 316.301C292.044 313.047 294.349 307.483 298.951 307.483H319.424C321.331 307.483 323.161 308.241 324.51 309.59L338.984 324.064C341.781 326.861 339.8 331.643 335.845 331.643C334.668 331.643 333.539 331.175 332.706 330.343L322.284 319.921C320.935 318.572 319.105 317.814 317.198 317.814ZM594.969 177.276L577.001 159.308C573.925 156.232 568.666 158.411 568.666 162.76C568.666 164.055 569.181 165.297 570.096 166.212L572.229 168.345C573.578 169.694 574.336 171.524 574.336 173.431V180.47C574.336 184.443 577.556 187.663 581.529 187.663H590.666C594.027 187.663 596.751 184.939 596.751 181.578C596.751 179.965 596.11 178.417 594.969 177.276ZM566.331 180.659V174.272C566.331 172.162 564.62 170.452 562.51 170.452C561.497 170.452 560.525 170.854 559.809 171.571L554.104 177.276C552.963 178.417 552.322 179.965 552.322 181.578C552.322 184.939 555.046 187.663 558.406 187.663H559.326C563.195 187.663 566.331 184.527 566.331 180.659ZM776.344 66.5108L797.481 45.3736C798.83 44.0246 800.66 43.2667 802.568 43.2667H819.881C822.4 43.2667 823.661 46.3116 821.88 48.0925C821.35 48.6226 820.631 48.9204 819.881 48.9204H818.075C816.169 48.9204 814.341 49.6776 812.993 51.0255L787.335 76.684C785.986 78.0331 784.156 78.7909 782.248 78.7909H781.431C775.022 78.7909 771.812 71.0425 776.344 66.5108ZM1061.36 412.711L1055.54 406.884C1051 402.352 1054.21 394.604 1060.62 394.604H1066.19C1068.1 394.604 1069.93 395.361 1071.28 396.71L1079.17 404.605C1080.52 405.954 1082.35 406.712 1084.26 406.712H1099.11C1100.19 406.712 1101.22 407.139 1101.98 407.899C1104.53 410.452 1102.73 414.818 1099.11 414.818H1066.45C1064.54 414.818 1062.71 414.06 1061.36 412.711ZM1012.14 458.141L1037.15 433.135C1038.49 431.786 1040.32 431.028 1042.23 431.028H1058.86C1062.46 431.028 1065.37 433.943 1065.37 437.538C1065.37 439.265 1066.06 440.92 1067.28 442.141L1070.81 445.673C1074.67 449.538 1081.28 446.8 1081.28 441.335C1081.28 435.87 1087.89 433.133 1091.75 436.997L1092.98 438.227C1094.27 439.512 1094.99 441.256 1094.99 443.074V453.166C1094.99 455.074 1095.75 456.903 1097.1 458.252L1115 476.153C1116.35 477.502 1117.11 479.332 1117.11 481.24V507.902C1117.11 509.81 1116.35 511.64 1115 512.989L1111.01 516.981C1109.66 518.33 1108.9 520.159 1108.9 522.067V522.902C1108.9 526.875 1105.68 530.095 1101.71 530.095H1088.86C1086.96 530.095 1085.13 529.337 1083.78 527.988L1061.37 505.584C1060.02 504.235 1058.19 503.477 1056.29 503.477H1032.23C1030.32 503.477 1028.49 504.235 1027.14 505.584L1015.74 516.981C1014.39 518.33 1012.56 519.088 1010.66 519.088H996.412C992.439 519.088 989.218 515.867 989.218 511.894V467.442C989.218 463.469 992.439 460.248 996.412 460.248H1007.05C1008.96 460.248 1010.79 459.49 1012.14 458.141ZM1094.89 544.47V545.954C1094.89 548.691 1097.1 550.909 1099.84 550.909C1101.16 550.909 1102.42 550.387 1103.34 549.458L1104.39 548.408C1107.9 544.9 1105.42 538.9 1100.46 538.9C1097.38 538.9 1094.89 541.394 1094.89 544.47ZM1195.11 530.252L1194.8 529.937C1193.87 529.013 1193.35 527.76 1193.35 526.453C1193.35 522.053 1198.68 519.859 1201.78 522.984L1211.48 532.764C1214.26 535.576 1214.25 540.114 1211.45 542.915L1189.66 564.713C1188.31 566.062 1186.45 566.82 1184.54 566.82C1178.14 566.82 1174.78 559.071 1179.32 554.539L1195.11 538.743C1197.46 536.398 1197.46 532.597 1195.11 530.252ZM561.425 256.019L528.813 288.63C527.464 289.979 526.706 291.809 526.706 293.717V341.794C526.706 343.702 527.464 345.531 528.813 346.88L547.515 365.582C548.864 366.932 550.694 367.689 552.601 367.689H617.78C621.752 367.689 624.973 370.91 624.973 374.883V395.03C624.973 396.938 625.731 398.767 627.08 400.116L634.074 407.11C635.423 408.459 636.181 410.289 636.181 412.197V503.092C636.181 507.065 639.401 510.285 643.374 510.285H665.022C666.93 510.285 668.76 509.527 670.109 508.178L720.332 457.955C721.681 456.606 722.439 454.777 722.439 452.869V398.587C722.439 396.68 723.197 394.85 724.546 393.501L755.556 362.491C759.657 358.39 756.752 351.378 750.953 351.378C749.226 351.378 747.57 350.692 746.35 349.471L696.127 299.248C694.777 297.899 694.02 296.07 694.02 294.162V280.319C694.02 276.346 690.799 273.125 686.826 273.125H625.962C621.99 273.125 618.769 269.905 618.769 265.932V261.105C618.769 257.132 615.548 253.912 611.575 253.912H566.511C564.604 253.912 562.774 254.67 561.425 256.019ZM616.085 121.517C617.993 121.517 619.822 120.759 621.172 119.41L650.681 89.9012C652.03 88.5521 653.859 87.7942 655.767 87.7942H710.149C712.057 87.7942 713.886 88.5521 715.235 89.9012L719.027 93.6922C720.376 95.0413 721.133 96.871 721.133 98.7788V100.547C721.133 106.956 728.882 110.166 733.414 105.634L746.545 92.5024C747.894 91.1534 749.724 90.3955 751.632 90.3955H810.116C812.024 90.3955 813.853 89.6376 815.202 88.2886L831.475 72.0163C834.284 69.207 838.839 69.207 841.648 72.0162L847.013 77.3812C848.362 78.7302 850.192 79.4881 852.099 79.4881H870.657C872.564 79.4881 874.394 78.7302 875.743 77.3812L899.648 53.476C900.997 52.127 902.827 51.3691 904.735 51.3691H927.595C929.503 51.3691 931.333 50.6112 932.682 49.2621L943.287 38.6567C945.827 36.1166 949.946 36.1166 952.486 38.6567C953.706 39.8766 955.36 40.5618 957.085 40.5618H969.813C973.785 40.5618 977.006 43.7825 977.006 47.7554V57.9854C977.006 61.9582 980.227 65.1789 984.2 65.1789H1034.75C1038.67 65.1789 1041.85 68.3597 1041.85 72.2836C1041.85 76.2074 1045.03 79.3883 1048.95 79.3883H1139.02C1141.36 79.3883 1143.27 81.2923 1143.27 83.6411C1143.27 85.9899 1145.17 87.894 1147.52 87.894H1229.9C1231.81 87.894 1233.64 88.6519 1234.99 90.0009L1244.06 99.0754C1245.29 100.31 1245.99 101.983 1245.99 103.729C1245.99 107.363 1243.04 110.309 1239.41 110.309H1222.25C1220.34 110.309 1218.51 111.067 1217.16 112.416L1182.65 146.928C1181.3 148.277 1179.47 149.035 1177.56 149.035H1165.16C1161.19 149.035 1157.97 152.256 1157.97 156.229V162.904C1157.97 164.812 1157.21 166.642 1155.86 167.991L1146.67 177.182C1142.14 181.714 1134.39 178.505 1134.39 172.096V165.499C1134.39 163.591 1135.15 161.761 1136.49 160.412L1152.25 144.654C1156.78 140.122 1153.57 132.374 1147.17 132.374H1146.25C1144.34 132.374 1142.51 133.132 1141.16 134.481L1134.42 141.224C1133.07 142.574 1131.24 143.331 1129.33 143.331H1089.56C1087.65 143.331 1085.82 144.089 1084.47 145.438L1062.2 167.708C1061.09 168.823 1060.46 170.335 1060.46 171.911C1060.46 175.194 1063.12 177.855 1066.41 177.855H1069.98C1073.95 177.855 1077.17 181.075 1077.17 185.048V199.392C1077.17 201.299 1076.42 203.129 1075.07 204.478L1053.41 226.137C1051.56 227.989 1048.55 227.989 1046.7 226.137C1044.85 224.286 1041.85 224.286 1040 226.137L1036.03 230.107C1033.22 232.916 1033.22 237.471 1036.03 240.28L1039.57 243.816C1042.37 246.625 1042.37 251.18 1039.57 253.989L1039.23 254.323C1036.42 257.132 1031.87 257.132 1029.06 254.323L1012.61 237.876C1011.47 236.735 1009.92 236.094 1008.31 236.094C1004.95 236.094 1002.22 238.818 1002.22 242.179V279.746C1002.22 281.654 1001.47 283.483 1000.12 284.832L974.154 310.794C972.413 312.535 969.591 312.535 967.85 310.794C966.109 309.053 963.286 309.053 961.546 310.794L956.548 315.792C955.551 316.789 954.991 318.141 954.991 319.55C954.991 320.96 955.551 322.312 956.548 323.308L963.491 330.252C964.84 331.601 965.598 333.431 965.598 335.339V341.387C965.598 343.295 964.84 345.125 963.491 346.474L962.88 347.086C960.07 349.895 955.516 349.895 952.707 347.086L950.771 345.151C947.962 342.341 943.408 342.341 940.598 345.151L937.66 348.089C936.311 349.438 935.553 351.268 935.553 353.176V356.723C935.553 358.63 936.311 360.46 937.66 361.809L947.472 371.621C948.202 372.351 948.612 373.341 948.612 374.373C948.612 377.844 944.413 379.579 941.963 377.121L929.571 364.685C928.227 363.336 927.473 361.51 927.473 359.607V349.648C927.473 347.74 928.231 345.911 929.58 344.562L935.095 339.047C937.904 336.237 937.904 331.683 935.095 328.873L907.743 301.521C904.933 298.712 900.379 298.712 897.569 301.521L872.241 326.85C870.892 328.199 870.134 330.028 870.134 331.936V344.589C870.134 346.497 869.376 348.327 868.027 349.676L866.84 350.863C864.031 353.672 859.476 353.672 856.667 350.863L848.075 342.271C846.726 340.922 845.968 339.092 845.968 337.184V323.681C845.968 321.773 845.21 319.943 843.861 318.594L823.808 298.542C822.459 297.193 820.63 296.435 818.722 296.435H798.363C796.455 296.435 794.626 295.677 793.277 294.328L784.426 285.477C782.464 283.515 779.283 283.515 777.321 285.477C775.359 287.439 772.179 287.439 770.217 285.477L763.662 278.923C760.899 276.16 756.419 276.16 753.655 278.923C750.892 281.686 750.892 286.166 753.655 288.93L766.614 301.888C768.963 304.237 772.771 304.237 775.12 301.888C777.469 299.54 781.277 299.54 783.626 301.888L788.296 306.558C791.105 309.368 791.105 313.922 788.296 316.731L771.973 333.054C770.624 334.403 768.795 335.161 766.887 335.161H759.437C757.529 335.161 755.699 334.403 754.35 333.054L706.383 285.087C705.64 284.344 704.632 283.926 703.581 283.926C701.393 283.926 699.619 282.152 699.619 279.964V277.613C699.619 274.799 701.9 272.519 704.714 272.519C706.065 272.519 707.361 271.982 708.316 271.026L714.972 264.37C716.034 263.308 716.63 261.868 716.63 260.367C716.63 257.241 714.096 254.707 710.97 254.707H683.586C681.678 254.707 679.848 253.949 678.499 252.6L639.278 213.379C637.676 211.776 635.077 211.776 633.474 213.379C631.872 214.981 631.872 217.58 633.474 219.183L651.353 237.061C654.163 239.871 654.163 244.425 651.353 247.235L650.494 248.094C645.962 252.626 638.214 249.416 638.214 243.008V239.71C638.214 237.802 637.456 235.973 636.107 234.624L621 219.516C618.19 216.707 613.636 216.707 610.826 219.516L583.446 246.897C582.097 248.246 580.267 249.003 578.36 249.003H561.525C559.667 249.003 557.885 248.265 556.571 246.952C555.258 245.638 554.52 243.856 554.52 241.998V232.28C554.52 228.307 557.74 225.087 561.713 225.087H575.896C579.869 225.087 583.089 221.866 583.089 217.893V211.605C583.089 209.697 583.847 207.868 585.196 206.519L613.337 178.377C614.313 177.402 614.861 176.079 614.861 174.7V174.102C614.861 169.69 620.196 167.48 623.316 170.6C624.245 171.529 625.505 172.051 626.819 172.051H652.432C656.405 172.051 659.625 168.83 659.625 164.857V129.634C659.625 127.726 660.383 125.897 661.732 124.548L669.415 116.865C671.469 114.811 671.469 111.48 669.415 109.426C667.36 107.371 664.029 107.371 661.975 109.426L646.087 125.314C644.738 126.663 643.98 128.492 643.98 130.4V156.051C643.98 160.024 640.76 163.245 636.787 163.245H636.075C632.483 163.245 629.57 160.333 629.57 156.74C629.57 153.148 626.658 150.236 623.066 150.236H613.549C609.576 150.236 606.355 147.015 606.355 143.043V128.711C606.355 124.738 609.576 121.517 613.549 121.517H616.085ZM691.392 233.692C689.484 233.692 687.655 232.934 686.306 231.585L685.727 231.006C682.905 228.184 682.92 223.604 685.76 220.8L692.705 213.944C694.649 212.025 697.777 212.035 699.709 213.967C701.65 215.908 704.796 215.908 706.736 213.967L708.026 212.677C710.679 210.025 714.98 210.025 717.632 212.677L728.397 223.442C730.742 225.787 730.742 229.588 728.397 231.933C727.271 233.059 725.744 233.692 724.151 233.692H691.392ZM751.181 218.004C748.447 220.825 748.482 225.318 751.26 228.096L756.554 233.39C757.903 234.739 758.661 236.569 758.661 238.477V243.114C758.661 247.087 761.882 250.307 765.855 250.307H770.48C774.453 250.307 777.674 247.087 777.674 243.114V236.676C777.674 234.768 776.916 232.938 775.567 231.589L769.418 225.44C767.014 223.036 767.031 219.122 769.436 216.717C771.821 214.332 771.838 210.448 769.453 208.063C767.041 205.651 763.121 205.682 760.748 208.131L751.181 218.004ZM200.848 49.5701H229.69C233.663 49.5701 236.883 46.3495 236.883 42.3766V30.5349C236.883 28.6271 236.125 26.7974 234.776 25.4484L222.557 13.2287C219.748 10.4195 215.193 10.4195 212.384 13.2287L195.762 29.8506C194.413 31.1996 193.655 33.0293 193.655 34.9372V42.3766C193.655 46.3495 196.875 49.5701 200.848 49.5701Z" fill="#E0DDDD"/>
<circle cx="271.9" cy="234.625" r="4.94637" transform="rotate(3.24671 271.9 234.625)" fill="#186AFF"/>
<circle cx="316.417" cy="233.388" r="4.94637" transform="rotate(3.24671 316.417 233.388)" fill="#186AFF"/>
<circle cx="632.984" cy="186.398" r="4.94637" transform="rotate(3.24671 632.984 186.398)" fill="#186AFF"/>
<circle cx="664.15" cy="160.43" r="4.94637" transform="rotate(3.24671 664.15 160.43)" fill="#186AFF"/>
<circle cx="713.614" cy="272.96" r="4.94637" transform="rotate(3.24671 713.614 272.96)" fill="#186AFF"/>
<circle cx="740.819" cy="293.982" r="4.94637" transform="rotate(3.24671 740.819 293.982)" fill="#186AFF"/>
<circle cx="766.788" cy="307.584" r="4.94637" transform="rotate(3.24671 766.788 307.584)" fill="#186AFF"/>
<circle cx="827.381" cy="287.799" r="4.94637" transform="rotate(3.24671 827.381 287.799)" fill="#186AFF"/>
<circle cx="971.811" cy="297.691" r="4.94637" transform="rotate(3.24671 971.811 297.691)" fill="#186AFF"/>
<circle cx="994.069" cy="268.013" r="4.94637" transform="rotate(3.24671 994.069 268.013)" fill="#186AFF"/>
<circle cx="1073.21" cy="243.282" r="4.94637" transform="rotate(3.24671 1073.21 243.282)" fill="#186AFF"/>
<circle cx="747.002" cy="452.265" r="4.94637" transform="rotate(3.24671 747.002 452.265)" fill="#186AFF"/>
<circle cx="938.423" cy="413.931" r="4.94637" transform="rotate(3.24671 938.423 413.931)" fill="#186AFF"/>
<circle cx="996.543" cy="500.492" r="4.94637" transform="rotate(3.24671 996.543 500.492)" fill="#186AFF"/>
<circle cx="1087.07" cy="514.095" r="4.94637" transform="rotate(3.24671 1087.07 514.095)" fill="#186AFF"/>
<circle cx="605.779" cy="196.291" r="4.94637" transform="rotate(3.24671 605.779 196.291)" fill="#186AFF"/>
<circle cx="582.284" cy="176.506" r="4.94637" transform="rotate(3.24671 582.284 176.506)" fill="#186AFF"/>
<circle cx="589.704" cy="228.442" r="4.94637" transform="rotate(3.24671 589.704 228.442)" fill="#186AFF"/>
<circle cx="561.262" cy="233.388" r="4.94637" transform="rotate(3.24671 561.262 233.388)" fill="#186AFF"/>
<circle cx="415.344" cy="465.868" r="4.94637" transform="rotate(3.24671 415.344 465.868)" fill="#186AFF"/>
</g>
<defs>
<clipPath id="clip0_2976_151912">
<rect width="1246" height="588" fill="white"/>
</clipPath>
</defs>
</svg>
