<svg width="1246" height="588" viewBox="0 0 1246 588" fill="none" xmlns="http://www.w3.org/2000/svg">
<g clip-path="url(#clip0_308_2)">
<path d="M205.647 402.611L207.083 398.92C208.519 395.229 211.392 387.847 215.635 384.95C219.879 382.053 225.494 383.641 228.151 375.556C230.809 367.471 230.509 349.714 235.025 347.71C239.542 345.706 248.875 359.455 255.303 363.703C261.731 367.951 265.253 362.697 269.2 358.83C273.147 354.963 277.519 352.483 280.812 346.48C284.106 340.477 286.323 330.95 291.436 330.896C296.548 330.842 304.557 340.261 307.932 334.524C311.307 328.786 310.049 307.892 311.837 296.964C313.625 286.035 318.46 285.072 325.423 291.072C332.387 297.072 341.479 310.035 346.652 310.176C351.824 310.317 353.076 297.636 356.331 291.504C359.585 285.371 364.842 285.788 369.635 284.689C374.428 283.589 378.757 280.974 383.099 278.398C387.441 275.823 391.795 273.288 393.972 272.02L396.149 270.753" stroke="#18A0FB" stroke-opacity="0.5" stroke-dasharray="2 2"/>
<mask id="mask0_308_2" style="mask-type:luminance" maskUnits="userSpaceOnUse" x="0" y="0" width="1246" height="588">
<path d="M1246 0H0V588H1246V0Z" fill="white"/>
</mask>
<g mask="url(#mask0_308_2)">
<path fill-rule="evenodd" clip-rule="evenodd" d="M246.17 7.7987L273.427 35.056C274.776 36.405 276.606 37.1629 278.514 37.1629H314.983C316.891 37.1629 318.72 36.405 320.069 35.056L342.407 12.7186C346.939 8.18691 343.729 0.438477 337.32 0.438477H249.218C248.079 0.438477 246.987 0.889252 246.179 1.69234C244.486 3.37463 244.482 6.11145 246.17 7.7987ZM249.516 37.1629V42.9875C249.516 44.8954 250.274 46.7251 251.623 48.0741L253.715 50.1662C255.064 51.5152 256.894 52.2731 258.802 52.2731H262.915C269.376 52.2731 272.561 44.4153 267.923 39.9162L260.356 32.576C256.303 28.6445 249.516 31.5164 249.516 37.1629ZM513.411 122.538L506.332 115.459C503.988 113.114 503.988 109.313 506.332 106.968C507.458 105.842 508.985 105.21 510.578 105.21H526.418C528.01 105.21 529.537 105.842 530.663 106.968C533.008 109.313 533.008 113.114 530.663 115.459L523.584 122.538C520.775 125.347 516.22 125.347 513.411 122.538ZM141.845 192.068V245.126C141.845 247.033 142.603 248.863 143.952 250.212L226.196 332.456C227.545 333.805 229.375 334.563 231.283 334.563H266.551C268.459 334.563 270.289 335.321 271.638 336.67L289.039 354.071C290.388 355.42 292.217 356.178 294.125 356.178H311.56V424.048C311.56 425.956 312.318 427.786 313.667 429.135L338.773 454.24C340.122 455.589 340.88 457.419 340.88 459.327V504.902C340.88 506.81 340.122 508.64 338.773 509.989L324.624 524.138C323.275 525.487 322.517 527.316 322.517 529.224V580.342C322.517 584.315 325.738 587.536 329.711 587.536H337.9C339.808 587.536 341.638 586.778 342.987 585.429L403.867 524.549C405.216 523.2 405.974 521.37 405.974 519.462V494.251C405.974 492.343 406.732 490.513 408.081 489.164L448.122 449.123C449.471 447.774 450.228 445.944 450.228 444.036V403.589C450.228 401.682 449.471 399.852 448.122 398.503L411.721 362.102C410.371 360.753 408.542 359.995 406.634 359.995H381.385C379.477 359.995 377.647 359.237 376.298 357.888L368.292 349.881C366.943 348.532 365.113 347.774 363.205 347.774H318.754C317.714 347.774 316.726 347.995 315.833 348.392C315.194 347.999 314.442 347.773 313.637 347.773H298.339C294.366 347.773 291.145 344.552 291.145 340.579V337.543C291.145 335.635 290.388 333.805 289.039 332.456L275.04 318.458C273.691 317.109 271.861 316.351 269.954 316.351H248.305C244.332 316.351 241.112 313.131 241.112 309.158V288.121C241.112 284.148 244.332 280.928 248.305 280.928H284.563C286.471 280.928 288.301 281.685 289.65 283.034L296.941 290.326C299.972 293.357 305.155 291.21 305.155 286.923C305.155 285.647 304.648 284.423 303.746 283.521L300.435 280.21C297.626 277.401 297.626 272.846 300.435 270.037L387.927 182.544C390.737 179.735 390.737 175.18 387.927 172.371L363.277 147.721C360.468 144.912 355.913 144.912 353.104 147.721L351.669 149.155C348.86 151.965 344.305 151.965 341.496 149.155L333.479 141.139C332.13 139.789 330.301 139.032 328.393 139.032H315.55C311.578 139.032 308.357 142.252 308.357 146.225V179.504C308.357 185.912 300.609 189.122 296.077 184.59L257.606 146.119C254.797 143.31 254.797 138.755 257.606 135.946L300.068 93.4835C302.877 90.6742 307.432 90.6742 310.241 93.4835L324.595 107.838C326.57 109.812 326.57 113.014 324.595 114.988C322.549 117.034 322.634 120.377 324.782 122.317L328.385 125.57C329.707 126.763 331.425 127.424 333.206 127.424H349.007C350.915 127.424 352.744 126.666 354.093 125.317L356.506 122.904C359.316 120.095 359.316 115.54 356.506 112.731L307.262 63.4859C305.913 62.1369 304.083 61.379 302.175 61.379H253.509C249.536 61.379 246.315 64.5996 246.315 68.5725V81.2034C246.315 85.1762 243.094 88.3969 239.122 88.3969H216.284C212.311 88.3969 209.09 85.1762 209.09 81.2034V74.6879C209.09 69.7766 203.152 67.317 199.679 70.7898C197.526 72.9427 194.036 72.9427 191.883 70.7898L181.577 60.4838C180.228 59.1348 178.398 58.3769 176.49 58.3769H152.641C148.668 58.3769 145.447 61.5975 145.447 65.5704V81.2034C145.447 85.1762 142.226 88.3969 138.254 88.3969H8.14273C4.16986 88.3969 0.949219 91.6175 0.949219 95.5904V133.839C0.949219 137.812 4.16986 141.033 8.14273 141.033H89.2313C91.1391 141.033 92.9688 141.791 94.3179 143.14L140.854 189.676C141.489 190.31 141.845 191.171 141.845 192.068ZM1086.88 181.161V200.275C1086.88 203.45 1090.72 205.041 1092.97 202.795C1094.36 201.403 1094.36 199.146 1092.97 197.754L1092.37 197.161C1091.55 196.336 1091.08 195.216 1091.08 194.048V187.466V181.161C1091.08 180.001 1090.14 179.06 1088.98 179.06C1087.82 179.06 1086.88 180.001 1086.88 181.161ZM743.58 436.306L738.154 441.732C736.805 443.081 736.047 444.911 736.047 446.818V472.869C736.047 476.842 739.268 480.063 743.24 480.063H743.663C747.636 480.063 750.857 476.842 750.857 472.869V454.223C750.857 452.315 751.614 450.486 752.963 449.137L753.753 448.347C755.102 446.998 755.86 445.168 755.86 443.26V441.392C755.86 434.983 748.111 431.774 743.58 436.306ZM1063.46 261.321L1052.74 272.04C1049.93 274.85 1045.35 274.819 1042.54 272.01C1039.74 269.211 1039.7 264.647 1042.48 261.833L1054.35 249.84C1055.7 248.474 1057.54 247.706 1059.46 247.706H1064.68C1068.65 247.706 1071.87 244.485 1071.87 240.513V232.274C1071.87 230.366 1072.63 228.536 1073.98 227.187L1081.03 220.138C1082.71 218.452 1085.45 218.452 1087.13 220.138C1088.82 221.823 1088.82 224.556 1087.13 226.242L1080.38 232.991C1079.03 234.34 1078.28 236.17 1078.28 238.078V252.021C1078.28 255.994 1075.06 259.214 1071.08 259.214H1068.55C1066.64 259.214 1064.81 259.972 1063.46 261.321ZM1007.23 327.556V345.192C1007.23 347.099 1007.99 348.929 1009.34 350.278L1018.56 359.507C1023.1 364.038 1030.84 360.829 1030.84 354.42V353.952C1030.84 352.044 1030.09 350.215 1028.74 348.866L1016.94 337.069C1015.59 335.72 1014.83 333.89 1014.83 331.982V327.556C1014.83 325.456 1013.13 323.754 1011.03 323.754C1008.93 323.754 1007.23 325.456 1007.23 327.556ZM977.241 367.493L964.773 379.962C963.424 381.311 962.666 383.14 962.666 385.048V395.288C962.666 399.261 965.887 402.482 969.859 402.482H986.685C988.593 402.482 990.423 401.724 991.772 400.375L1001.39 390.76C1002.74 389.411 1003.49 387.581 1003.49 385.674V372.58C1003.49 368.607 1000.27 365.386 996.3 365.386H982.328C980.42 365.386 978.59 366.144 977.241 367.493ZM964.701 424.493H1005.46C1009.26 424.493 1011.17 429.092 1008.48 431.781C1007.68 432.582 1006.59 433.032 1005.46 433.032H964.701C960.897 433.032 958.993 428.433 961.682 425.744C962.483 424.943 963.569 424.493 964.701 424.493ZM932.572 383.891L927.746 379.065C923.214 374.533 915.466 377.743 915.466 384.151V399.03C915.466 400.937 916.224 402.767 917.573 404.116L936.205 422.749C939.593 426.137 945.386 423.737 945.386 418.946C945.386 417.52 944.819 416.152 943.811 415.143L936.786 408.119C935.437 406.77 934.679 404.94 934.679 403.032V388.977C934.679 387.07 933.921 385.24 932.572 383.891ZM421.17 3.18786L391.614 32.7442C388.804 35.5535 388.804 40.1082 391.614 42.9174L411.858 63.1615C413.207 64.5106 413.965 66.3403 413.965 68.2481V81.5783C413.965 83.4861 414.723 85.3158 416.072 86.6649L448.275 118.869C449.624 120.218 451.454 120.976 453.362 120.976H456.991C460.963 120.976 464.184 117.755 464.184 113.782V108.158C464.184 106.25 464.942 104.42 466.291 103.071L533.096 36.2657C535.905 33.4565 535.905 28.9018 533.096 26.0926L510.191 3.18786C508.842 1.83881 507.013 1.08093 505.105 1.08093H426.257C424.349 1.08093 422.519 1.83881 421.17 3.18786ZM317.198 317.814H298.951C297.581 317.814 296.267 317.27 295.298 316.301C292.044 313.047 294.349 307.483 298.951 307.483H319.424C321.331 307.483 323.161 308.241 324.51 309.59L338.984 324.064C341.781 326.861 339.8 331.643 335.845 331.643C334.668 331.643 333.539 331.175 332.706 330.343L322.284 319.921C320.935 318.572 319.105 317.814 317.198 317.814ZM594.969 177.276L577.001 159.308C573.925 156.232 568.666 158.411 568.666 162.76C568.666 164.055 569.181 165.297 570.096 166.212L572.229 168.345C573.578 169.694 574.336 171.524 574.336 173.431V180.47C574.336 184.443 577.556 187.663 581.529 187.663H590.666C594.027 187.663 596.751 184.939 596.751 181.578C596.751 179.965 596.11 178.417 594.969 177.276ZM566.331 180.659V174.272C566.331 172.162 564.62 170.452 562.51 170.452C561.497 170.452 560.525 170.854 559.809 171.571L554.104 177.276C552.963 178.417 552.322 179.965 552.322 181.578C552.322 184.939 555.046 187.663 558.406 187.663H559.326C563.195 187.663 566.331 184.527 566.331 180.659ZM776.344 66.5105L797.481 45.3733C798.83 44.0243 800.66 43.2664 802.568 43.2664H819.881C822.4 43.2664 823.661 46.3113 821.88 48.0922C821.35 48.6223 820.631 48.9201 819.881 48.9201H818.075C816.169 48.9201 814.341 49.6773 812.993 51.0252L787.335 76.6837C785.986 78.0328 784.156 78.7906 782.248 78.7906H781.431C775.022 78.7906 771.812 71.0422 776.344 66.5105ZM1061.36 412.711L1055.54 406.884C1051 402.352 1054.21 394.604 1060.62 394.604H1066.19C1068.1 394.604 1069.93 395.361 1071.28 396.71L1079.17 404.605C1080.52 405.954 1082.35 406.712 1084.26 406.712H1099.11C1100.19 406.712 1101.22 407.139 1101.98 407.899C1104.53 410.452 1102.73 414.818 1099.11 414.818H1066.45C1064.54 414.818 1062.71 414.06 1061.36 412.711ZM1012.14 458.141L1037.15 433.135C1038.49 431.786 1040.32 431.028 1042.23 431.028H1058.86C1062.46 431.028 1065.37 433.943 1065.37 437.538C1065.37 439.265 1066.06 440.92 1067.28 442.141L1070.81 445.673C1074.67 449.538 1081.28 446.8 1081.28 441.335C1081.28 435.87 1087.89 433.133 1091.75 436.997L1092.98 438.227C1094.27 439.512 1094.99 441.256 1094.99 443.074V453.166C1094.99 455.074 1095.75 456.903 1097.1 458.252L1115 476.153C1116.35 477.502 1117.11 479.332 1117.11 481.24V507.902C1117.11 509.81 1116.35 511.64 1115 512.989L1111.01 516.981C1109.66 518.33 1108.9 520.159 1108.9 522.067V522.902C1108.9 526.875 1105.68 530.095 1101.71 530.095H1088.86C1086.96 530.095 1085.13 529.337 1083.78 527.988L1061.37 505.584C1060.02 504.235 1058.19 503.477 1056.29 503.477H1032.23C1030.32 503.477 1028.49 504.235 1027.14 505.584L1015.74 516.981C1014.39 518.33 1012.56 519.088 1010.66 519.088H996.412C992.439 519.088 989.218 515.867 989.218 511.894V467.442C989.218 463.469 992.439 460.248 996.412 460.248H1007.05C1008.96 460.248 1010.79 459.49 1012.14 458.141ZM1094.89 544.47V545.954C1094.89 548.691 1097.1 550.909 1099.84 550.909C1101.16 550.909 1102.42 550.387 1103.34 549.458L1104.39 548.408C1107.9 544.9 1105.42 538.9 1100.46 538.9C1097.38 538.9 1094.89 541.394 1094.89 544.47ZM1195.11 530.252L1194.8 529.937C1193.87 529.013 1193.35 527.76 1193.35 526.453C1193.35 522.053 1198.68 519.859 1201.78 522.984L1211.48 532.764C1214.26 535.576 1214.25 540.114 1211.45 542.915L1189.66 564.713C1188.31 566.062 1186.45 566.82 1184.54 566.82C1178.14 566.82 1174.78 559.071 1179.32 554.539L1195.11 538.743C1197.46 536.398 1197.46 532.597 1195.11 530.252ZM561.425 256.019L528.813 288.63C527.464 289.979 526.706 291.809 526.706 293.717V341.794C526.706 343.702 527.464 345.531 528.813 346.88L547.515 365.582C548.864 366.932 550.694 367.689 552.601 367.689H617.78C621.752 367.689 624.973 370.91 624.973 374.883V395.03C624.973 396.938 625.731 398.767 627.08 400.116L634.074 407.11C635.423 408.459 636.181 410.289 636.181 412.197V503.092C636.181 507.065 639.401 510.285 643.374 510.285H665.022C666.93 510.285 668.76 509.527 670.109 508.178L720.332 457.955C721.681 456.606 722.439 454.777 722.439 452.869V398.587C722.439 396.68 723.197 394.85 724.546 393.501L755.556 362.491C759.657 358.39 756.752 351.378 750.953 351.378C749.226 351.378 747.57 350.692 746.35 349.471L696.127 299.248C694.777 297.899 694.02 296.07 694.02 294.162V280.319C694.02 276.346 690.799 273.125 686.826 273.125H625.962C621.99 273.125 618.769 269.905 618.769 265.932V261.105C618.769 257.132 615.548 253.912 611.575 253.912H566.511C564.604 253.912 562.774 254.67 561.425 256.019ZM616.085 121.517C617.993 121.517 619.822 120.759 621.172 119.41L650.681 89.9009C652.03 88.5518 653.859 87.7939 655.767 87.7939H710.149C712.057 87.7939 713.886 88.5518 715.235 89.9009L719.027 93.6919C720.376 95.041 721.133 96.8707 721.133 98.7785V100.547C721.133 106.956 728.882 110.166 733.414 105.634L746.545 92.5021C747.894 91.1531 749.724 90.3952 751.632 90.3952H810.116C812.024 90.3952 813.853 89.6373 815.202 88.2883L831.475 72.016C834.284 69.2067 838.839 69.2067 841.648 72.0159L847.013 77.3809C848.362 78.7299 850.192 79.4878 852.099 79.4878H870.657C872.564 79.4878 874.394 78.7299 875.743 77.3809L899.648 53.4757C900.997 52.1267 902.827 51.3688 904.735 51.3688H927.595C929.503 51.3688 931.333 50.6109 932.682 49.2618L943.287 38.6564C945.827 36.1163 949.946 36.1163 952.486 38.6564C953.706 39.8763 955.36 40.5615 957.085 40.5615H969.813C973.785 40.5615 977.006 43.7822 977.006 47.7551V57.9851C977.006 61.9579 980.227 65.1786 984.2 65.1786H1034.75C1038.67 65.1786 1041.85 68.3594 1041.85 72.2833C1041.85 76.2071 1045.03 79.388 1048.95 79.388H1139.02C1141.36 79.388 1143.27 81.292 1143.27 83.6408C1143.27 85.9896 1145.17 87.8937 1147.52 87.8937H1229.9C1231.81 87.8937 1233.64 88.6516 1234.99 90.0006L1244.06 99.0751C1245.29 100.31 1245.99 101.983 1245.99 103.729C1245.99 107.363 1243.04 110.309 1239.41 110.309H1222.25C1220.34 110.309 1218.51 111.067 1217.16 112.416L1182.65 146.928C1181.3 148.277 1179.47 149.035 1177.56 149.035H1165.16C1161.19 149.035 1157.97 152.256 1157.97 156.229V162.904C1157.97 164.812 1157.21 166.642 1155.86 167.991L1146.67 177.182C1142.14 181.714 1134.39 178.505 1134.39 172.096V165.499C1134.39 163.591 1135.15 161.761 1136.49 160.412L1152.25 144.654C1156.78 140.122 1153.57 132.374 1147.17 132.374H1146.25C1144.34 132.374 1142.51 133.132 1141.16 134.481L1134.42 141.224C1133.07 142.574 1131.24 143.331 1129.33 143.331H1089.56C1087.65 143.331 1085.82 144.089 1084.47 145.438L1062.2 167.708C1061.09 168.823 1060.46 170.335 1060.46 171.911C1060.46 175.194 1063.12 177.855 1066.41 177.855H1069.98C1073.95 177.855 1077.17 181.075 1077.17 185.048V199.392C1077.17 201.299 1076.42 203.129 1075.07 204.478L1053.41 226.137C1051.56 227.989 1048.55 227.989 1046.7 226.137C1044.85 224.286 1041.85 224.286 1040 226.137L1036.03 230.107C1033.22 232.916 1033.22 237.471 1036.03 240.28L1039.57 243.816C1042.37 246.625 1042.37 251.18 1039.57 253.989L1039.23 254.323C1036.42 257.132 1031.87 257.132 1029.06 254.323L1012.61 237.876C1011.47 236.735 1009.92 236.094 1008.31 236.094C1004.95 236.094 1002.22 238.818 1002.22 242.179V279.746C1002.22 281.654 1001.47 283.483 1000.12 284.832L974.154 310.794C972.413 312.535 969.591 312.535 967.85 310.794C966.109 309.053 963.286 309.053 961.546 310.794L956.548 315.792C955.551 316.789 954.991 318.141 954.991 319.55C954.991 320.96 955.551 322.312 956.548 323.308L963.491 330.252C964.84 331.601 965.598 333.431 965.598 335.339V341.387C965.598 343.295 964.84 345.125 963.491 346.474L962.88 347.086C960.07 349.895 955.516 349.895 952.707 347.086L950.771 345.151C947.962 342.341 943.408 342.341 940.598 345.151L937.66 348.089C936.311 349.438 935.553 351.268 935.553 353.176V356.723C935.553 358.63 936.311 360.46 937.66 361.809L947.472 371.621C948.202 372.351 948.612 373.341 948.612 374.373C948.612 377.844 944.413 379.579 941.963 377.121L929.571 364.685C928.227 363.336 927.473 361.51 927.473 359.607V349.648C927.473 347.74 928.231 345.911 929.58 344.562L935.095 339.047C937.904 336.237 937.904 331.683 935.095 328.873L907.743 301.521C904.933 298.712 900.379 298.712 897.569 301.521L872.241 326.85C870.892 328.199 870.134 330.028 870.134 331.936V344.589C870.134 346.497 869.376 348.327 868.027 349.676L866.84 350.863C864.031 353.672 859.476 353.672 856.667 350.863L848.075 342.271C846.726 340.922 845.968 339.092 845.968 337.184V323.681C845.968 321.773 845.21 319.943 843.861 318.594L823.808 298.542C822.459 297.193 820.63 296.435 818.722 296.435H798.363C796.455 296.435 794.626 295.677 793.277 294.328L784.426 285.477C782.464 283.515 779.283 283.515 777.321 285.477C775.359 287.439 772.179 287.439 770.217 285.477L763.662 278.923C760.899 276.16 756.419 276.16 753.655 278.923C750.892 281.686 750.892 286.166 753.655 288.93L766.614 301.888C768.963 304.237 772.771 304.237 775.12 301.888C777.469 299.54 781.277 299.54 783.626 301.888L788.296 306.558C791.105 309.368 791.105 313.922 788.296 316.731L771.973 333.054C770.624 334.403 768.795 335.161 766.887 335.161H759.437C757.529 335.161 755.699 334.403 754.35 333.054L706.383 285.087C705.64 284.344 704.632 283.926 703.581 283.926C701.393 283.926 699.619 282.152 699.619 279.964V277.613C699.619 274.799 701.9 272.519 704.714 272.519C706.065 272.519 707.361 271.982 708.316 271.026L714.972 264.37C716.034 263.308 716.63 261.868 716.63 260.367C716.63 257.241 714.096 254.707 710.97 254.707H683.586C681.678 254.707 679.848 253.949 678.499 252.6L639.278 213.379C637.676 211.776 635.077 211.776 633.474 213.379C631.872 214.981 631.872 217.58 633.474 219.183L651.353 237.061C654.163 239.871 654.163 244.425 651.353 247.235L650.494 248.094C645.962 252.626 638.214 249.416 638.214 243.008V239.71C638.214 237.802 637.456 235.973 636.107 234.624L621 219.516C618.19 216.707 613.636 216.707 610.826 219.516L583.446 246.897C582.097 248.246 580.267 249.003 578.36 249.003H561.525C559.667 249.003 557.885 248.265 556.571 246.952C555.258 245.638 554.52 243.856 554.52 241.998V232.28C554.52 228.307 557.74 225.087 561.713 225.087H575.896C579.869 225.087 583.089 221.866 583.089 217.893V211.605C583.089 209.697 583.847 207.868 585.196 206.519L613.337 178.377C614.313 177.402 614.861 176.079 614.861 174.7V174.102C614.861 169.69 620.196 167.48 623.316 170.6C624.245 171.529 625.505 172.051 626.819 172.051H652.432C656.405 172.051 659.625 168.83 659.625 164.857V129.634C659.625 127.726 660.383 125.897 661.732 124.548L669.415 116.865C671.469 114.811 671.469 111.48 669.415 109.426C667.36 107.371 664.029 107.371 661.975 109.426L646.087 125.314C644.738 126.663 643.98 128.492 643.98 130.4V156.051C643.98 160.024 640.76 163.245 636.787 163.245H636.075C632.483 163.245 629.57 160.333 629.57 156.74C629.57 153.148 626.658 150.236 623.066 150.236H613.549C609.576 150.236 606.355 147.015 606.355 143.043V128.711C606.355 124.738 609.576 121.517 613.549 121.517H616.085ZM691.392 233.692C689.484 233.692 687.655 232.934 686.306 231.585L685.727 231.006C682.905 228.184 682.92 223.604 685.76 220.8L692.705 213.944C694.649 212.025 697.777 212.035 699.709 213.967C701.65 215.908 704.796 215.908 706.736 213.967L708.026 212.677C710.679 210.025 714.98 210.025 717.632 212.677L728.397 223.442C730.742 225.787 730.742 229.588 728.397 231.933C727.271 233.059 725.744 233.692 724.151 233.692H691.392ZM751.181 218.004C748.447 220.825 748.482 225.318 751.26 228.096L756.554 233.39C757.903 234.739 758.661 236.569 758.661 238.477V243.114C758.661 247.087 761.882 250.307 765.855 250.307H770.48C774.453 250.307 777.674 247.087 777.674 243.114V236.676C777.674 234.768 776.916 232.938 775.567 231.589L769.418 225.44C767.014 223.036 767.031 219.122 769.436 216.717C771.821 214.332 771.838 210.448 769.453 208.063C767.041 205.651 763.121 205.682 760.748 208.131L751.181 218.004ZM200.848 49.5698H229.69C233.663 49.5698 236.883 46.3492 236.883 42.3763V30.5346C236.883 28.6268 236.125 26.7971 234.776 25.4481L222.557 13.2284C219.748 10.4192 215.193 10.4192 212.384 13.2284L195.762 29.8503C194.413 31.1993 193.655 33.029 193.655 34.9369V42.3763C193.655 46.3492 196.875 49.5698 200.848 49.5698Z" fill="#E0DDDD"/>
<path d="M271.619 239.563C274.347 239.718 276.683 237.632 276.838 234.905C276.993 232.178 274.907 229.841 272.18 229.686C269.452 229.532 267.116 231.617 266.961 234.345C266.806 237.072 268.892 239.409 271.619 239.563Z" fill="#186AFF"/>
<path d="M316.137 238.326C318.864 238.481 321.201 236.395 321.356 233.668C321.51 230.94 319.425 228.604 316.697 228.449C313.97 228.294 311.633 230.38 311.479 233.107C311.324 235.835 313.41 238.171 316.137 238.326Z" fill="#186AFF"/>
<path d="M632.703 191.336C635.431 191.49 637.767 189.405 637.922 186.677C638.077 183.95 635.991 181.614 633.264 181.459C630.536 181.304 628.2 183.39 628.045 186.117C627.89 188.845 629.976 191.181 632.703 191.336Z" fill="#186AFF"/>
<path d="M668.939 224.157C671.666 224.312 674.003 222.226 674.157 219.499C674.312 216.771 672.226 214.435 669.499 214.28C666.772 214.125 664.435 216.211 664.28 218.938C664.126 221.666 666.211 224.002 668.939 224.157Z" fill="#186AFF"/>
<path d="M713.333 277.898C716.061 278.053 718.397 275.967 718.552 273.24C718.707 270.512 716.621 268.176 713.894 268.021C711.166 267.867 708.83 269.952 708.675 272.68C708.52 275.407 710.606 277.743 713.333 277.898Z" fill="#186AFF"/>
<path d="M740.538 298.92C743.266 299.074 745.602 296.989 745.757 294.261C745.912 291.534 743.826 289.198 741.099 289.043C738.371 288.888 736.035 290.974 735.88 293.701C735.725 296.429 737.811 298.765 740.538 298.92Z" fill="#186AFF"/>
<path d="M766.507 312.522C769.235 312.677 771.571 310.591 771.726 307.864C771.88 305.137 769.795 302.8 767.067 302.645C764.34 302.491 762.003 304.576 761.849 307.304C761.694 310.031 763.78 312.368 766.507 312.522Z" fill="#186AFF"/>
<path d="M824.946 292.893C827.678 292.893 829.893 290.678 829.893 287.946C829.893 285.215 827.678 283 824.946 283C822.215 283 820 285.215 820 287.946C820 290.678 822.215 292.893 824.946 292.893Z" fill="#186AFF"/>
<path d="M902.946 276.893C905.678 276.893 907.893 274.678 907.893 271.946C907.893 269.215 905.678 267 902.946 267C900.215 267 898 269.215 898 271.946C898 274.678 900.215 276.893 902.946 276.893Z" fill="#186AFF"/>
<path d="M1072.93 248.22C1075.66 248.375 1077.99 246.29 1078.15 243.562C1078.3 240.835 1076.22 238.498 1073.49 238.344C1070.76 238.189 1068.43 240.274 1068.27 243.002C1068.12 245.729 1070.2 248.066 1072.93 248.22Z" fill="#186AFF"/>
<path d="M746.722 457.203C749.449 457.358 751.786 455.272 751.94 452.545C752.095 449.817 750.01 447.481 747.282 447.326C744.555 447.171 742.218 449.257 742.064 451.984C741.909 454.712 743.995 457.048 746.722 457.203Z" fill="#186AFF"/>
<path d="M693.946 381.893C696.678 381.893 698.893 379.678 698.893 376.946C698.893 374.215 696.678 372 693.946 372C691.215 372 689 374.215 689 376.946C689 379.678 691.215 381.893 693.946 381.893Z" fill="#186AFF"/>
<path d="M938.143 418.869C940.87 419.024 943.207 416.938 943.361 414.211C943.516 411.483 941.43 409.147 938.703 408.992C935.976 408.837 933.639 410.923 933.485 413.65C933.33 416.378 935.415 418.714 938.143 418.869Z" fill="#186AFF"/>
<path d="M996.263 505.43C998.99 505.585 1001.33 503.5 1001.48 500.772C1001.64 498.045 999.551 495.708 996.823 495.554C994.096 495.399 991.759 497.484 991.605 500.212C991.45 502.939 993.536 505.276 996.263 505.43Z" fill="#186AFF"/>
<path d="M1086.79 519.033C1089.52 519.188 1091.85 517.102 1092.01 514.375C1092.16 511.647 1090.08 509.311 1087.35 509.156C1084.62 509.001 1082.29 511.087 1082.13 513.814C1081.98 516.542 1084.06 518.878 1086.79 519.033Z" fill="#186AFF"/>
<path d="M605.498 201.229C608.226 201.384 610.562 199.298 610.717 196.571C610.872 193.844 608.786 191.507 606.059 191.352C603.331 191.198 600.995 193.283 600.84 196.011C600.685 198.738 602.771 201.075 605.498 201.229Z" fill="#186AFF"/>
<path d="M582.003 181.444C584.731 181.599 587.067 179.513 587.222 176.786C587.376 174.058 585.291 171.722 582.563 171.567C579.836 171.413 577.5 173.498 577.345 176.226C577.19 178.953 579.276 181.289 582.003 181.444Z" fill="#186AFF"/>
<path d="M589.423 233.38C592.15 233.534 594.487 231.449 594.642 228.721C594.796 225.994 592.711 223.658 589.983 223.503C587.256 223.348 584.919 225.434 584.765 228.161C584.61 230.889 586.696 233.225 589.423 233.38Z" fill="#186AFF"/>
<path d="M560.982 238.326C563.709 238.481 566.046 236.395 566.2 233.668C566.355 230.94 564.269 228.604 561.542 228.449C558.815 228.294 556.478 230.38 556.323 233.107C556.169 235.835 558.254 238.171 560.982 238.326Z" fill="#186AFF"/>
<path d="M415.064 470.806C417.791 470.961 420.128 468.876 420.282 466.148C420.437 463.421 418.351 461.084 415.624 460.93C412.897 460.775 410.56 462.86 410.405 465.588C410.251 468.315 412.336 470.652 415.064 470.806Z" fill="#186AFF"/>
</g>
<path d="M33.4 425C33.4 422.253 34.0133 419.8 35.24 417.64C36.4933 415.453 38.1867 413.76 40.32 412.56C42.48 411.333 44.8933 410.72 47.56 410.72C50.68 410.72 53.4133 411.52 55.76 413.12C58.1067 414.72 59.7467 416.933 60.68 419.76H54.24C53.6 418.427 52.6933 417.427 51.52 416.76C50.3733 416.093 49.04 415.76 47.52 415.76C45.8933 415.76 44.44 416.147 43.16 416.92C41.9067 417.667 40.92 418.733 40.2 420.12C39.5067 421.507 39.16 423.133 39.16 425C39.16 426.84 39.5067 428.467 40.2 429.88C40.92 431.267 41.9067 432.347 43.16 433.12C44.44 433.867 45.8933 434.24 47.52 434.24C49.04 434.24 50.3733 433.907 51.52 433.24C52.6933 432.547 53.6 431.533 54.24 430.2H60.68C59.7467 433.053 58.1067 435.28 55.76 436.88C53.44 438.453 50.7067 439.24 47.56 439.24C44.8933 439.24 42.48 438.64 40.32 437.44C38.1867 436.213 36.4933 434.52 35.24 432.36C34.0133 430.2 33.4 427.747 33.4 425ZM86.3831 416.84V439H80.7431V436.2C80.0231 437.16 79.0765 437.92 77.9031 438.48C76.7565 439.013 75.5031 439.28 74.1431 439.28C72.4098 439.28 70.8765 438.92 69.5431 438.2C68.2098 437.453 67.1565 436.373 66.3831 434.96C65.6365 433.52 65.2631 431.813 65.2631 429.84V416.84H70.8631V429.04C70.8631 430.8 71.3031 432.16 72.1831 433.12C73.0631 434.053 74.2631 434.52 75.7831 434.52C77.3298 434.52 78.5431 434.053 79.4231 433.12C80.3031 432.16 80.7431 430.8 80.7431 429.04V416.84H86.3831ZM97.5084 409.4V439H91.9084V409.4H97.5084ZM109.561 421.44V432.16C109.561 432.907 109.735 433.453 110.081 433.8C110.455 434.12 111.068 434.28 111.921 434.28H114.521V439H111.001C106.281 439 103.921 436.707 103.921 432.12V421.44H101.281V416.84H103.921V411.36H109.561V416.84H114.521V421.44H109.561ZM121.389 414.2C120.402 414.2 119.576 413.893 118.909 413.28C118.269 412.64 117.949 411.853 117.949 410.92C117.949 409.987 118.269 409.213 118.909 408.6C119.576 407.96 120.402 407.64 121.389 407.64C122.376 407.64 123.189 407.96 123.829 408.6C124.496 409.213 124.829 409.987 124.829 410.92C124.829 411.853 124.496 412.64 123.829 413.28C123.189 413.893 122.376 414.2 121.389 414.2ZM124.149 416.84V439H118.549V416.84H124.149ZM138.922 433.84L144.522 416.84H150.482L142.282 439H135.482L127.322 416.84H133.322L138.922 433.84ZM152.187 427.84C152.187 425.6 152.627 423.613 153.507 421.88C154.414 420.147 155.627 418.813 157.147 417.88C158.694 416.947 160.414 416.48 162.307 416.48C163.961 416.48 165.401 416.813 166.627 417.48C167.881 418.147 168.881 418.987 169.627 420V416.84H175.267V439H169.627V435.76C168.907 436.8 167.907 437.667 166.627 438.36C165.374 439.027 163.921 439.36 162.267 439.36C160.401 439.36 158.694 438.88 157.147 437.92C155.627 436.96 154.414 435.613 153.507 433.88C152.627 432.12 152.187 430.107 152.187 427.84ZM169.627 427.92C169.627 426.56 169.361 425.4 168.827 424.44C168.294 423.453 167.574 422.707 166.667 422.2C165.761 421.667 164.787 421.4 163.747 421.4C162.707 421.4 161.747 421.653 160.867 422.16C159.987 422.667 159.267 423.413 158.707 424.4C158.174 425.36 157.907 426.507 157.907 427.84C157.907 429.173 158.174 430.347 158.707 431.36C159.267 432.347 159.987 433.107 160.867 433.64C161.774 434.173 162.734 434.44 163.747 434.44C164.787 434.44 165.761 434.187 166.667 433.68C167.574 433.147 168.294 432.4 168.827 431.44C169.361 430.453 169.627 429.28 169.627 427.92ZM187.257 421.44V432.16C187.257 432.907 187.43 433.453 187.777 433.8C188.15 434.12 188.763 434.28 189.617 434.28H192.217V439H188.697C183.977 439 181.617 436.707 181.617 432.12V421.44H178.977V416.84H181.617V411.36H187.257V416.84H192.217V421.44H187.257ZM199.084 414.2C198.098 414.2 197.271 413.893 196.604 413.28C195.964 412.64 195.644 411.853 195.644 410.92C195.644 409.987 195.964 409.213 196.604 408.6C197.271 407.96 198.098 407.64 199.084 407.64C200.071 407.64 200.884 407.96 201.524 408.6C202.191 409.213 202.524 409.987 202.524 410.92C202.524 411.853 202.191 412.64 201.524 413.28C200.884 413.893 200.071 414.2 199.084 414.2ZM201.844 416.84V439H196.244V416.84H201.844ZM219.657 416.52C222.297 416.52 224.431 417.36 226.057 419.04C227.684 420.693 228.497 423.013 228.497 426V439H222.897V426.76C222.897 425 222.457 423.653 221.577 422.72C220.697 421.76 219.497 421.28 217.977 421.28C216.431 421.28 215.204 421.76 214.297 422.72C213.417 423.653 212.977 425 212.977 426.76V439H207.377V416.84H212.977V419.6C213.724 418.64 214.671 417.893 215.817 417.36C216.991 416.8 218.271 416.52 219.657 416.52ZM242.503 416.48C244.156 416.48 245.609 416.813 246.863 417.48C248.116 418.12 249.103 418.96 249.823 420V416.84H255.463V439.16C255.463 441.213 255.049 443.04 254.223 444.64C253.396 446.267 252.156 447.547 250.503 448.48C248.849 449.44 246.849 449.92 244.503 449.92C241.356 449.92 238.769 449.187 236.743 447.72C234.743 446.253 233.609 444.253 233.343 441.72H238.903C239.196 442.733 239.823 443.533 240.783 444.12C241.769 444.733 242.956 445.04 244.343 445.04C245.969 445.04 247.289 444.547 248.303 443.56C249.316 442.6 249.823 441.133 249.823 439.16V435.72C249.103 436.76 248.103 437.627 246.823 438.32C245.569 439.013 244.129 439.36 242.503 439.36C240.636 439.36 238.929 438.88 237.383 437.92C235.836 436.96 234.609 435.613 233.702 433.88C232.822 432.12 232.382 430.107 232.382 427.84C232.382 425.6 232.822 423.613 233.702 421.88C234.609 420.147 235.823 418.813 237.343 417.88C238.889 416.947 240.609 416.48 242.503 416.48ZM249.823 427.92C249.823 426.56 249.556 425.4 249.023 424.44C248.489 423.453 247.769 422.707 246.863 422.2C245.956 421.667 244.983 421.4 243.943 421.4C242.903 421.4 241.943 421.653 241.062 422.16C240.183 422.667 239.463 423.413 238.903 424.4C238.369 425.36 238.103 426.507 238.103 427.84C238.103 429.173 238.369 430.347 238.903 431.36C239.463 432.347 240.183 433.107 241.062 433.64C241.969 434.173 242.929 434.44 243.943 434.44C244.983 434.44 245.956 434.187 246.863 433.68C247.769 433.147 248.489 432.4 249.023 431.44C249.556 430.453 249.823 429.28 249.823 427.92Z" fill="#3F3F46"/>
<path d="M535.88 551.68H524.76L522.92 557H517.04L527.08 529.04H533.6L543.64 557H537.72L535.88 551.68ZM534.36 547.2L530.32 535.52L526.28 547.2H534.36ZM545.953 545.92C545.953 543.627 546.419 541.627 547.353 539.92C548.286 538.187 549.579 536.853 551.233 535.92C552.886 534.96 554.779 534.48 556.913 534.48C559.659 534.48 561.926 535.173 563.713 536.56C565.526 537.92 566.739 539.84 567.353 542.32H561.313C560.993 541.36 560.446 540.613 559.673 540.08C558.926 539.52 557.993 539.24 556.873 539.24C555.273 539.24 554.006 539.827 553.073 541C552.139 542.147 551.673 543.787 551.673 545.92C551.673 548.027 552.139 549.667 553.073 550.84C554.006 551.987 555.273 552.56 556.873 552.56C559.139 552.56 560.619 551.547 561.313 549.52H567.353C566.739 551.92 565.526 553.827 563.713 555.24C561.899 556.653 559.633 557.36 556.913 557.36C554.779 557.36 552.886 556.893 551.233 555.96C549.579 555 548.286 553.667 547.353 551.96C546.419 550.227 545.953 548.213 545.953 545.92ZM577.055 538.28C577.775 537.107 578.709 536.187 579.855 535.52C581.029 534.853 582.362 534.52 583.855 534.52V540.4H582.375C580.615 540.4 579.282 540.813 578.375 541.64C577.495 542.467 577.055 543.907 577.055 545.96V557H571.455V534.84H577.055V538.28ZM597.467 557.36C595.334 557.36 593.414 556.893 591.707 555.96C590.001 555 588.654 553.653 587.667 551.92C586.707 550.187 586.227 548.187 586.227 545.92C586.227 543.653 586.721 541.653 587.707 539.92C588.721 538.187 590.094 536.853 591.827 535.92C593.561 534.96 595.494 534.48 597.627 534.48C599.761 534.48 601.694 534.96 603.427 535.92C605.161 536.853 606.521 538.187 607.507 539.92C608.521 541.653 609.027 543.653 609.027 545.92C609.027 548.187 608.507 550.187 607.467 551.92C606.454 553.653 605.067 555 603.307 555.96C601.574 556.893 599.627 557.36 597.467 557.36ZM597.467 552.48C598.481 552.48 599.427 552.24 600.307 551.76C601.214 551.253 601.934 550.507 602.467 549.52C603.001 548.533 603.267 547.333 603.267 545.92C603.267 543.813 602.707 542.2 601.587 541.08C600.494 539.933 599.147 539.36 597.547 539.36C595.947 539.36 594.601 539.933 593.507 541.08C592.441 542.2 591.907 543.813 591.907 545.92C591.907 548.027 592.427 549.653 593.467 550.8C594.534 551.92 595.867 552.48 597.467 552.48ZM621.615 557.36C619.802 557.36 618.175 557.04 616.735 556.4C615.295 555.733 614.148 554.84 613.295 553.72C612.468 552.6 612.015 551.36 611.935 550H617.575C617.682 550.853 618.095 551.56 618.815 552.12C619.562 552.68 620.482 552.96 621.575 552.96C622.642 552.96 623.468 552.747 624.055 552.32C624.668 551.893 624.975 551.347 624.975 550.68C624.975 549.96 624.602 549.427 623.855 549.08C623.135 548.707 621.975 548.307 620.375 547.88C618.722 547.48 617.362 547.067 616.295 546.64C615.255 546.213 614.348 545.56 613.575 544.68C612.828 543.8 612.455 542.613 612.455 541.12C612.455 539.893 612.802 538.773 613.495 537.76C614.215 536.747 615.228 535.947 616.535 535.36C617.868 534.773 619.428 534.48 621.215 534.48C623.855 534.48 625.962 535.147 627.535 536.48C629.108 537.787 629.975 539.56 630.135 541.8H624.775C624.695 540.92 624.322 540.227 623.655 539.72C623.015 539.187 622.148 538.92 621.055 538.92C620.042 538.92 619.255 539.107 618.695 539.48C618.162 539.853 617.895 540.373 617.895 541.04C617.895 541.787 618.268 542.36 619.015 542.76C619.762 543.133 620.922 543.52 622.495 543.92C624.095 544.32 625.415 544.733 626.455 545.16C627.495 545.587 628.388 546.253 629.135 547.16C629.908 548.04 630.308 549.213 630.335 550.68C630.335 551.96 629.975 553.107 629.255 554.12C628.562 555.133 627.548 555.933 626.215 556.52C624.908 557.08 623.375 557.36 621.615 557.36ZM643.412 557.36C641.599 557.36 639.972 557.04 638.532 556.4C637.092 555.733 635.945 554.84 635.092 553.72C634.265 552.6 633.812 551.36 633.732 550H639.372C639.479 550.853 639.892 551.56 640.612 552.12C641.359 552.68 642.279 552.96 643.372 552.96C644.439 552.96 645.265 552.747 645.852 552.32C646.465 551.893 646.772 551.347 646.772 550.68C646.772 549.96 646.399 549.427 645.652 549.08C644.932 548.707 643.772 548.307 642.172 547.88C640.519 547.48 639.159 547.067 638.092 546.64C637.052 546.213 636.145 545.56 635.372 544.68C634.625 543.8 634.252 542.613 634.252 541.12C634.252 539.893 634.599 538.773 635.292 537.76C636.012 536.747 637.025 535.947 638.332 535.36C639.665 534.773 641.225 534.48 643.012 534.48C645.652 534.48 647.759 535.147 649.332 536.48C650.905 537.787 651.772 539.56 651.932 541.8H646.572C646.492 540.92 646.119 540.227 645.452 539.72C644.812 539.187 643.945 538.92 642.852 538.92C641.839 538.92 641.052 539.107 640.492 539.48C639.959 539.853 639.692 540.373 639.692 541.04C639.692 541.787 640.065 542.36 640.812 542.76C641.559 543.133 642.719 543.52 644.292 543.92C645.892 544.32 647.212 544.733 648.252 545.16C649.292 545.587 650.185 546.253 650.932 547.16C651.705 548.04 652.105 549.213 652.132 550.68C652.132 551.96 651.772 553.107 651.052 554.12C650.359 555.133 649.345 555.933 648.012 556.52C646.705 557.08 645.172 557.36 643.412 557.36ZM664.9 543C664.9 540.253 665.513 537.8 666.74 535.64C667.993 533.453 669.687 531.76 671.82 530.56C673.98 529.333 676.393 528.72 679.06 528.72C682.18 528.72 684.913 529.52 687.26 531.12C689.607 532.72 691.247 534.933 692.18 537.76H685.74C685.1 536.427 684.193 535.427 683.02 534.76C681.873 534.093 680.54 533.76 679.02 533.76C677.393 533.76 675.94 534.147 674.66 534.92C673.407 535.667 672.42 536.733 671.7 538.12C671.007 539.507 670.66 541.133 670.66 543C670.66 544.84 671.007 546.467 671.7 547.88C672.42 549.267 673.407 550.347 674.66 551.12C675.94 551.867 677.393 552.24 679.02 552.24C680.54 552.24 681.873 551.907 683.02 551.24C684.193 550.547 685.1 549.533 685.74 548.2H692.18C691.247 551.053 689.607 553.28 687.26 554.88C684.94 556.453 682.207 557.24 679.06 557.24C676.393 557.24 673.98 556.64 671.82 555.44C669.687 554.213 667.993 552.52 666.74 550.36C665.513 548.2 664.9 545.747 664.9 543ZM706.803 557.36C704.67 557.36 702.75 556.893 701.043 555.96C699.336 555 697.99 553.653 697.003 551.92C696.043 550.187 695.563 548.187 695.563 545.92C695.563 543.653 696.056 541.653 697.043 539.92C698.056 538.187 699.43 536.853 701.163 535.92C702.896 534.96 704.83 534.48 706.963 534.48C709.096 534.48 711.03 534.96 712.763 535.92C714.496 536.853 715.856 538.187 716.843 539.92C717.856 541.653 718.363 543.653 718.363 545.92C718.363 548.187 717.843 550.187 716.803 551.92C715.79 553.653 714.403 555 712.643 555.96C710.91 556.893 708.963 557.36 706.803 557.36ZM706.803 552.48C707.816 552.48 708.763 552.24 709.643 551.76C710.55 551.253 711.27 550.507 711.803 549.52C712.336 548.533 712.603 547.333 712.603 545.92C712.603 543.813 712.043 542.2 710.923 541.08C709.83 539.933 708.483 539.36 706.883 539.36C705.283 539.36 703.936 539.933 702.843 541.08C701.776 542.2 701.243 543.813 701.243 545.92C701.243 548.027 701.763 549.653 702.803 550.8C703.87 551.92 705.203 552.48 706.803 552.48ZM734.751 534.52C737.391 534.52 739.524 535.36 741.151 537.04C742.778 538.693 743.591 541.013 743.591 544V557H737.991V544.76C737.991 543 737.551 541.653 736.671 540.72C735.791 539.76 734.591 539.28 733.071 539.28C731.524 539.28 730.298 539.76 729.391 540.72C728.511 541.653 728.071 543 728.071 544.76V557H722.471V534.84H728.071V537.6C728.818 536.64 729.764 535.893 730.911 535.36C732.084 534.8 733.364 534.52 734.751 534.52ZM755.436 539.44V550.16C755.436 550.907 755.61 551.453 755.956 551.8C756.33 552.12 756.943 552.28 757.796 552.28H760.396V557H756.876C752.156 557 749.796 554.707 749.796 550.12V539.44H747.156V534.84H749.796V529.36H755.436V534.84H760.396V539.44H755.436ZM767.264 532.2C766.277 532.2 765.451 531.893 764.784 531.28C764.144 530.64 763.824 529.853 763.824 528.92C763.824 527.987 764.144 527.213 764.784 526.6C765.451 525.96 766.277 525.64 767.264 525.64C768.251 525.64 769.064 525.96 769.704 526.6C770.371 527.213 770.704 527.987 770.704 528.92C770.704 529.853 770.371 530.64 769.704 531.28C769.064 531.893 768.251 532.2 767.264 532.2ZM770.024 534.84V557H764.424V534.84H770.024ZM787.837 534.52C790.477 534.52 792.61 535.36 794.237 537.04C795.864 538.693 796.677 541.013 796.677 544V557H791.077V544.76C791.077 543 790.637 541.653 789.757 540.72C788.877 539.76 787.677 539.28 786.157 539.28C784.61 539.28 783.384 539.76 782.477 540.72C781.597 541.653 781.157 543 781.157 544.76V557H775.557V534.84H781.157V537.6C781.904 536.64 782.85 535.893 783.997 535.36C785.17 534.8 786.45 534.52 787.837 534.52ZM822.602 545.44C822.602 546.24 822.549 546.96 822.442 547.6H806.242C806.376 549.2 806.936 550.453 807.922 551.36C808.909 552.267 810.122 552.72 811.562 552.72C813.642 552.72 815.122 551.827 816.002 550.04H822.042C821.402 552.173 820.176 553.933 818.362 555.32C816.549 556.68 814.322 557.36 811.682 557.36C809.549 557.36 807.629 556.893 805.922 555.96C804.242 555 802.922 553.653 801.962 551.92C801.029 550.187 800.562 548.187 800.562 545.92C800.562 543.627 801.029 541.613 801.962 539.88C802.896 538.147 804.202 536.813 805.882 535.88C807.562 534.947 809.496 534.48 811.682 534.48C813.789 534.48 815.669 534.933 817.322 535.84C819.002 536.747 820.296 538.04 821.202 539.72C822.136 541.373 822.602 543.28 822.602 545.44ZM816.802 543.84C816.776 542.4 816.256 541.253 815.242 540.4C814.229 539.52 812.989 539.08 811.522 539.08C810.136 539.08 808.962 539.507 808.002 540.36C807.069 541.187 806.496 542.347 806.282 543.84H816.802ZM838.97 534.52C841.61 534.52 843.743 535.36 845.37 537.04C846.996 538.693 847.81 541.013 847.81 544V557H842.21V544.76C842.21 543 841.77 541.653 840.89 540.72C840.01 539.76 838.81 539.28 837.29 539.28C835.743 539.28 834.516 539.76 833.61 540.72C832.73 541.653 832.29 543 832.29 544.76V557H826.69V534.84H832.29V537.6C833.036 536.64 833.983 535.893 835.13 535.36C836.303 534.8 837.583 534.52 838.97 534.52ZM859.655 539.44V550.16C859.655 550.907 859.828 551.453 860.175 551.8C860.548 552.12 861.162 552.28 862.015 552.28H864.615V557H861.095C856.375 557 854.015 554.707 854.015 550.12V539.44H851.375V534.84H854.015V529.36H859.655V534.84H864.615V539.44H859.655ZM877.123 557.36C875.309 557.36 873.683 557.04 872.243 556.4C870.803 555.733 869.656 554.84 868.803 553.72C867.976 552.6 867.523 551.36 867.443 550H873.083C873.189 550.853 873.603 551.56 874.323 552.12C875.069 552.68 875.989 552.96 877.083 552.96C878.149 552.96 878.976 552.747 879.563 552.32C880.176 551.893 880.483 551.347 880.483 550.68C880.483 549.96 880.109 549.427 879.363 549.08C878.643 548.707 877.483 548.307 875.883 547.88C874.229 547.48 872.869 547.067 871.803 546.64C870.763 546.213 869.856 545.56 869.083 544.68C868.336 543.8 867.963 542.613 867.963 541.12C867.963 539.893 868.309 538.773 869.003 537.76C869.723 536.747 870.736 535.947 872.043 535.36C873.376 534.773 874.936 534.48 876.723 534.48C879.363 534.48 881.469 535.147 883.043 536.48C884.616 537.787 885.483 539.56 885.643 541.8H880.283C880.203 540.92 879.829 540.227 879.163 539.72C878.523 539.187 877.656 538.92 876.563 538.92C875.549 538.92 874.763 539.107 874.203 539.48C873.669 539.853 873.403 540.373 873.403 541.04C873.403 541.787 873.776 542.36 874.523 542.76C875.269 543.133 876.429 543.52 878.003 543.92C879.603 544.32 880.923 544.733 881.963 545.16C883.003 545.587 883.896 546.253 884.643 547.16C885.416 548.04 885.816 549.213 885.843 550.68C885.843 551.96 885.483 553.107 884.763 554.12C884.069 555.133 883.056 555.933 881.723 556.52C880.416 557.08 878.883 557.36 877.123 557.36ZM892.92 557.28C891.906 557.28 891.066 556.973 890.4 556.36C889.76 555.72 889.44 554.933 889.44 554C889.44 553.067 889.76 552.293 890.4 551.68C891.066 551.04 891.906 550.72 892.92 550.72C893.906 550.72 894.72 551.04 895.36 551.68C896 552.293 896.32 553.067 896.32 554C896.32 554.933 896 555.72 895.36 556.36C894.72 556.973 893.906 557.28 892.92 557.28Z" fill="#3F3F46"/>
<path d="M426.04 250.08V269.68C426.04 272.4 425.253 274.52 423.68 276.04C422.107 277.533 420 278.28 417.36 278.28C414.693 278.28 412.533 277.507 410.88 275.96C409.253 274.413 408.44 272.253 408.44 269.48H414.04C414.067 270.68 414.347 271.613 414.88 272.28C415.44 272.947 416.24 273.28 417.28 273.28C418.293 273.28 419.067 272.96 419.6 272.32C420.133 271.68 420.4 270.8 420.4 269.68V250.08H426.04ZM442.413 278.36C440.279 278.36 438.359 277.893 436.653 276.96C434.946 276 433.599 274.653 432.613 272.92C431.653 271.187 431.173 269.187 431.173 266.92C431.173 264.653 431.666 262.653 432.653 260.92C433.666 259.187 435.039 257.853 436.773 256.92C438.506 255.96 440.439 255.48 442.573 255.48C444.706 255.48 446.639 255.96 448.373 256.92C450.106 257.853 451.466 259.187 452.453 260.92C453.466 262.653 453.973 264.653 453.973 266.92C453.973 269.187 453.453 271.187 452.412 272.92C451.399 274.653 450.013 276 448.253 276.96C446.519 277.893 444.573 278.36 442.413 278.36ZM442.413 273.48C443.426 273.48 444.373 273.24 445.253 272.76C446.159 272.253 446.879 271.507 447.413 270.52C447.946 269.533 448.213 268.333 448.213 266.92C448.213 264.813 447.653 263.2 446.533 262.08C445.439 260.933 444.093 260.36 442.493 260.36C440.893 260.36 439.546 260.933 438.453 262.08C437.386 263.2 436.853 264.813 436.853 266.92C436.853 269.027 437.373 270.653 438.413 271.8C439.479 272.92 440.813 273.48 442.413 273.48ZM479.28 255.84L465.56 288.48H459.6L464.4 277.44L455.52 255.84H461.8L467.52 271.32L473.32 255.84H479.28Z" fill="#3F3F46"/>
<path d="M439.501 291.5V291.5C440.59 297.098 445.077 301.391 450.703 302.322C456.909 303.35 464.414 304.692 471.295 306.238C482.325 308.717 491.75 311.722 493.831 317.135C495.912 322.547 490.647 330.368 490.826 336.405C491.005 342.441 496.627 346.693 505.948 349.732C515.268 352.771 521.494 355.38 525.991 360.001C530.489 364.621 533.258 374.523 525.991 383.001C518.725 391.478 501.5 395 500 402C498.5 409 522.098 411.682 525.991 416.501C529.885 421.319 527.889 430.762 530.5 436.001C533.11 441.24 544.613 440.67 551.664 444.453C558.715 448.237 554.731 462.209 563.5 465.429C572.268 468.649 586.061 461.116 591.5 465.428C596.939 469.739 600.34 477.254 594.906 485.131C589.471 493.008 587.085 507.353 591.5 512.001" stroke="#18A0FB" stroke-opacity="0.5" stroke-dasharray="2 2"/>
</g>
<defs>
<clipPath id="clip0_308_2">
<rect width="1246" height="588" fill="white"/>
</clipPath>
</defs>
</svg>
